<svg xmlns="http://www.w3.org/2000/svg" width="84.032" height="43.574" viewBox="0 0 84.032 43.574">
  <path id="Trazado_11" data-name="Trazado 11" d="M3.093,194.878a20.245,20.245,0,0,1,10.765-10.79,19.807,19.807,0,0,1,7.894-1.58H82.476v4.14H33.9a21.672,21.672,0,0,1,5.871,7A19.181,19.181,0,0,1,42,202.839a19.807,19.807,0,0,1-1.58,7.894A20.211,20.211,0,0,1,29.648,221.5a19.8,19.8,0,0,1-7.894,1.58,19.809,19.809,0,0,1-7.894-1.583A20.228,20.228,0,0,1,3.093,210.7a20.618,20.618,0,0,1,0-15.828Zm33.565,14.211a17.014,17.014,0,0,0,1.218-6.3,16.6,16.6,0,0,0-1.218-6.3,21.577,21.577,0,0,0-1.5-2.659,18.093,18.093,0,0,0-1.9-2.423,18.507,18.507,0,0,0-2.5-1.98,21.631,21.631,0,0,0-2.679-1.5,19.252,19.252,0,0,0-3.149-.974,15.319,15.319,0,0,0-3.151-.321,16.943,16.943,0,0,0-6.3,1.291,17.532,17.532,0,0,0-2.705,1.5,16.227,16.227,0,0,0-2.377,1.972,15.251,15.251,0,0,0-1.972,2.435,21.6,21.6,0,0,0-1.5,2.664A16.23,16.23,0,0,0,10.4,214.257a20.039,20.039,0,0,0,5.087,3.394,16.943,16.943,0,0,0,6.3,1.291,15.32,15.32,0,0,0,3.151-.324,19,19,0,0,0,3.149-.974,25.179,25.179,0,0,0,5.17-3.394,20.344,20.344,0,0,0,3.4-5.16Z" transform="translate(0.056 -181.008)" fill="#fff" stroke="#f9f9f9" stroke-linecap="round" stroke-linejoin="round" stroke-miterlimit="10" stroke-width="3"/>
</svg>
