<svg xmlns="http://www.w3.org/2000/svg" width="83.966" height="43.579" viewBox="0 0 83.966 43.579">
  <path id="Trazado_10" data-name="Trazado 10" d="M1.5,21.78a19.909,19.909,0,0,1,1.583-7.909A20.228,20.228,0,0,1,13.847,3.081,19.809,19.809,0,0,1,21.741,1.5a19.8,19.8,0,0,1,7.894,1.583A20.211,20.211,0,0,1,40.4,13.849a19.807,19.807,0,0,1,1.58,7.894,19.181,19.181,0,0,1-2.228,9.19,21.672,21.672,0,0,1-5.871,7H82.464v4.14H21.741a19.807,19.807,0,0,1-7.894-1.58,20.245,20.245,0,0,1-10.765-10.8A19.9,19.9,0,0,1,1.5,21.78ZM33.249,10.313a25.178,25.178,0,0,0-5.17-3.394,18.993,18.993,0,0,0-3.149-.974,15.319,15.319,0,0,0-3.151-.324,16.943,16.943,0,0,0-6.3,1.291,19.967,19.967,0,0,0-5.094,3.4,15.906,15.906,0,0,0-3.468,5.167,16.943,16.943,0,0,0-1.291,6.3,16.945,16.945,0,0,0,1.291,6.3,21.6,21.6,0,0,0,1.5,2.664,15.251,15.251,0,0,0,1.98,2.435,16.227,16.227,0,0,0,2.381,1.98,17.532,17.532,0,0,0,2.705,1.5,16.943,16.943,0,0,0,6.3,1.291,15.319,15.319,0,0,0,3.151-.321,19.252,19.252,0,0,0,3.149-.974,21.628,21.628,0,0,0,2.679-1.5,18.506,18.506,0,0,0,2.5-1.98,18.1,18.1,0,0,0,1.9-2.435,21.578,21.578,0,0,0,1.493-2.664,16.6,16.6,0,0,0,1.218-6.3,17.011,17.011,0,0,0-1.218-6.3,20.345,20.345,0,0,0-3.4-5.162Z" transform="translate(0.002 0.002)" fill="#fff" stroke="#f9f9f9" stroke-linejoin="round" stroke-miterlimit="10" stroke-width="3"/>
</svg>
