<svg xmlns="http://www.w3.org/2000/svg" viewBox="0 0 600 600"><defs><style>.cls-1{fill:#fefefe;}.cls-2{fill:#851472;}</style></defs><title>Recurso 8LOGO</title><g id="Capa_2" data-name="Capa 2"><g id="Capa_1-2" data-name="Capa 1"><path class="cls-1" d="M300,599.91q-147.92,0-295.83.09C.84,600,0,599.48,0,596Q.19,300.12,0,4.26C0,.44,1.05,0,4.44,0Q300,.15,595.6,0c3.47,0,4.4.55,4.4,4.29q-.18,295.59,0,591.2c0,3.92-1.08,4.51-4.68,4.51Q447.66,599.84,300,599.91Zm19.05-20c57-.92,123.34-27.07,177.71-81,59.44-59,87-131.35,82.62-214.66-4.3-80.87-38.86-148-101-199.84-57.13-47.68-123.85-67.8-198-63.59C143.8,28.57,16.27,145.7,20.12,307.91,23.64,456,145.82,579.89,319,579.92Z"/><path class="cls-2" d="M319,579.92c-173.22,0-295.4-123.9-298.92-272C16.27,145.7,143.8,28.57,280.4,20.8c74.12-4.21,140.84,15.91,198,63.59,62.14,51.85,96.7,119,101,199.84,4.42,83.31-23.18,155.67-82.62,214.66C442.38,552.85,376,579,319,579.92ZM304,550a294.7,294.7,0,0,0,43.64-4.85c47.73-9.22,88.82-31,124.36-63.89,3-2.8,3.31-5,1.6-8.49C439.93,403.69,385,365.91,308.28,360.24a161.89,161.89,0,0,0-51.9,4.89C196.13,380.43,153,416.55,126.43,472.72c-1.65,3.5-1.55,5.72,1.54,8.51A278.31,278.31,0,0,0,156.5,504.4c13.87,9.55,28.23,18.07,43.78,24.68A257.07,257.07,0,0,0,304,550Zm-4-419.93c-50.84-.22-104.64,41.53-99.49,109,3.66,47.92,42.37,90.15,99,90.71,55.46.54,99.93-43.57,100.38-99.52C400.33,175.1,355.08,130.05,300,130.05Z"/><path class="cls-1" d="M304,550a257.07,257.07,0,0,1-103.7-20.9c-15.55-6.61-29.91-15.13-43.78-24.68A278.31,278.31,0,0,1,128,481.23c-3.09-2.79-3.19-5-1.54-8.51,26.53-56.17,69.7-92.29,130-107.59a161.89,161.89,0,0,1,51.9-4.89c76.68,5.67,131.65,43.45,165.3,112.51,1.71,3.52,1.43,5.69-1.6,8.49-35.54,32.85-76.63,54.67-124.36,63.89A294.7,294.7,0,0,1,304,550Z"/><path class="cls-1" d="M300,130.05c55.1,0,100.35,45,99.9,100.23-.45,56-44.92,100.06-100.38,99.52-56.64-.56-95.35-42.79-99-90.71C195.34,171.58,249.14,129.83,300,130.05Z"/></g></g></svg>